<?xml version="1.0" encoding="UTF-8" standalone="no"?> <!-- Created with Vectornator for iOS (http://vectornator.io/) --><!DOCTYPE svg PUBLIC "-//W3C//DTD SVG 1.1//EN" "http://www.w3.org/Graphics/SVG/1.1/DTD/svg11.dtd">
<svg height="100%" style="fill-rule:evenodd;clip-rule:evenodd;stroke-linecap:round;stroke-linejoin:round;" xmlns:xlink="http://www.w3.org/1999/xlink" xmlns="http://www.w3.org/2000/svg" xml:space="preserve" width="100%" xmlns:vectornator="http://vectornator.io" version="1.1" viewBox="0 0 170.1 158.76">
<metadata>
<vectornator:setting key="DimensionsVisible" value="1"/>
<vectornator:setting key="SnapToPoints" value="0"/>
<vectornator:setting key="OutlineMode" value="0"/>
<vectornator:setting key="RulersVisible" value="1"/>
<vectornator:setting key="GuidesVisible" value="1"/>
<vectornator:setting key="CMYKEnabledKey" value="1"/>
<vectornator:setting key="SnapToEdges" value="0"/>
<vectornator:setting key="DisplayWhiteBackground" value="1"/>
<vectornator:setting key="SnapToGuides" value="1"/>
<vectornator:setting key="Units" value="Millimeters"/>
<vectornator:setting key="SnapToGrid" value="0"/>
<vectornator:setting key="DynamicGuides" value="0"/>
<vectornator:setting key="New" value="1"/>
</metadata>
<defs/>
<g id="Layer 1 copy" vectornator:layerName="Layer 1 copy">
<g opacity="1">
<g opacity="1">
<path d="M7.39749+114.793L163.302+114.793L163.302+150.797L7.39749+150.797L7.39749+114.793Z" opacity="1" fill="#ffcdaa"/>
<path d="M38.5783+64.3864L38.5783+64.3864L38.5783+141.196L38.5783+141.196L38.5783+64.3864Z" opacity="1" fill="#000000"/>
<path d="M100.94+37.9831L100.94+37.9831L100.94+143.596L100.94+143.596L100.94+37.9831Z" opacity="1" fill="#000000"/>
<path d="M7.39749+42.7837C7.39749+24.7814+7.39749+42.7837+7.39749+24.7814C7.39749+6.77919+7.39749+60.7859+7.39749+42.7837Z" opacity="1" fill="#000000"/>
<path d="M163.302+6.77919L132.121+42.7837L132.121+114.793L163.302+150.797L163.302+6.77919Z" opacity="1" fill="#ef6400"/>
<path d="M116.53+73.3875L116.53+73.3875L116.53+150.197L116.53+150.197L116.53+73.3875Z" opacity="1" fill="#000000"/>
<path d="M147.711+51.7848C147.711+33.7826+147.711+51.7848+147.711+33.7826C147.711+15.7803+147.711+69.7871+147.711+51.7848Z" opacity="1" fill="#000000"/>
<path d="M132.121+114.793L116.869+114.793L100.94+114.793L100.94+114.793L120.541+126.11L163.302+150.797L136.295+119.613L132.121+114.793Z" opacity="1" fill="#ef6400"/>
<path d="M38.5783+64.3864L38.5783+64.3864L38.5783+141.196L38.5783+141.196L38.5783+64.3864Z" opacity="1" fill="#000000"/>
<path d="M7.39749+42.7837C7.39749+24.7814+7.39749+42.7837+7.39749+24.7814C7.39749+6.77919+7.39749+60.7859+7.39749+42.7837Z" opacity="1" fill="#000000"/>
<path d="M38.5783+64.3864L38.5783+64.3864L38.5783+141.196L38.5783+141.196L38.5783+64.3864Z" opacity="1" fill="#000000"/>
<path d="M7.39749+42.7837C7.39749+24.7814+7.39749+42.7837+7.39749+24.7814C7.39749+6.77919+7.39749+60.7859+7.39749+42.7837Z" opacity="1" fill="#000000"/>
<path d="M38.5783+64.3864L38.5783+64.3864L38.5783+141.196L38.5783+141.196L38.5783+64.3864Z" opacity="1" fill="#000000"/>
<path d="M7.39749+42.7837C7.39749+24.7814+7.39749+42.7837+7.39749+24.7814C7.39749+6.77919+7.39749+60.7859+7.39749+42.7837Z" opacity="1" fill="#000000"/>
<path d="M38.5783+64.3864L38.5783+64.3864L38.5783+141.196L38.5783+141.196L38.5783+64.3864Z" opacity="1" fill="#000000"/>
<path d="M7.39749+42.7837C7.39749+24.7814+7.39749+42.7837+7.39749+24.7814C7.39749+6.77919+7.39749+60.7859+7.39749+42.7837Z" opacity="1" fill="#000000"/>
<path d="M7.39749+6.77919L28.5342+31.1858L38.5783+42.7837L38.5783+114.793L7.39749+150.797L7.39749+6.77919Z" opacity="1" fill="#ef6400"/>
<path d="M38.5783+64.3864L38.5783+64.3864L38.5783+141.196L38.5783+141.196L38.5783+64.3864Z" opacity="1" fill="#000000"/>
<path d="M7.39749+42.7837C7.39749+24.7814+7.39749+42.7837+7.39749+24.7814C7.39749+6.77919+7.39749+60.7859+7.39749+42.7837Z" opacity="1" fill="#000000"/>
<path d="M38.5783+114.793L53.8296+114.793L69.7591+114.793L69.7591+114.793L50.1578+126.11L7.39749+150.797L34.404+119.613L38.5783+114.793Z" opacity="1" fill="#ef6400"/>
<path d="M69.7591+42.7837L85.3495+6.77919L100.94+45.184L100.94+64.3864L100.94+114.793L95.0896+128.303L85.3495+150.797L69.7591+114.793L69.7591+42.7837Z" opacity="1" fill="#ef6400"/>
<path d="M85.3495+51.7848L69.7591+42.7837L85.3495+51.7848Z" opacity="1" fill="#ef6400"/>
<path d="M100.94+42.7837L85.3495+51.7848L69.7591+42.7837L85.3495+6.77919L100.94+42.7837Z" opacity="1" fill="#ffcdaa"/>
<path d="M132.121+42.7837L147.711+51.7848L163.302+42.7837L163.302+6.77919L132.121+42.7837Z" opacity="1" fill="#ffcdaa"/>
<path d="M38.5783+42.7837L22.9879+51.7848L7.39749+42.7837L7.39749+6.77919" opacity="1" fill="#ffcdaa"/>
<path d="M85.3495+6.77919L77.5543+33.7826C69.7591+42.7837+69.7591+42.7837+69.7591+42.7837L77.5543+33.7826L69.7591+42.7837C69.7591+42.7837+77.5543+33.7826+77.5543+33.7826L69.7591+42.7837" opacity="1" fill="#b26f3e"/>
<path d="M163.302+6.77919L147.711+33.7826C132.121+42.7837+132.121+42.7837+132.121+42.7837L147.711+33.7826L132.121+42.7837L147.711+33.7826L132.121+42.7837" opacity="1" fill="#b26f3e"/>
<path d="M7.39749+6.77919L22.9879+33.7826L38.5783+42.7837L22.9879+33.7826L38.5783+42.7837C38.5783+42.7837+22.9879+33.7826+22.9879+33.7826C22.9879+33.7826+38.5783+42.7837+38.5783+42.7837" opacity="1" fill="#b26f3e"/>
<path d="M85.3495+6.77919L77.5543+33.7826C69.7591+42.7837+69.7591+42.7837+69.7591+42.7837L77.5543+33.7826L69.7591+42.7837C69.7591+42.7837+77.5543+33.7826+77.5543+33.7826L69.7591+42.7837" opacity="1" fill="#b26f3e"/>
<path d="M85.3495+6.77919L93.1447+33.7826C100.94+42.7837+100.94+42.7837+100.94+42.7837L93.1447+33.7826L100.94+42.7837C100.94+42.7837+93.1447+33.7826+93.1447+33.7826L100.94+42.7837" opacity="1" fill="#b26f3e"/>
<path d="M7.39749+6.77919L7.39749+42.7837L22.9879+33.7826C7.39749+24.7814+7.39749+6.77919+7.39749+6.77919Z" opacity="1" fill="#ffcdaa"/>
<path d="M38.5783+150.797L76.2232+129.358L69.7591+114.793L7.39749+150.797L38.5783+150.797Z" opacity="1" fill="#b16e3e"/>
<path d="M85.3495+6.77919L77.5543+33.7826C69.7591+42.7837+69.7591+42.7837+69.7591+42.7837L77.5543+33.7826L69.7591+42.7837C69.7591+42.7837+77.5543+33.7826+77.5543+33.7826L69.7591+42.7837" opacity="1" fill="#b26f3e"/>
<path d="M85.3495+6.77919L77.5543+33.7826C69.7591+42.7837+69.7591+42.7837+69.7591+42.7837L77.5543+33.7826L69.7591+42.7837C69.7591+42.7837+77.5543+33.7826+77.5543+33.7826L69.7591+42.7837" opacity="1" fill="#b26f3e"/>
<path d="M132.241+150.581L94.596+129.141L101.06+114.576L163.422+150.581L132.241+150.581Z" opacity="1" fill="#b16e3e"/>
</g>
<g opacity="1">
<path stroke="#f9f9f9" stroke-width="3.60905" d="M64.379+132.587L108.377+107.323L64.379+82.0587L64.379+132.587Z" fill="#02224b" stroke-linecap="butt" opacity="1" stroke-linejoin="round"/>
<path stroke="#f9f9f9" stroke-width="3.60905" d="M42.7312+123.995L14.535+107.804L42.7312+91.6133L42.7312+123.995Z" fill="#02224b" stroke-linecap="butt" opacity="1" stroke-linejoin="round"/>
<path stroke="#f9f9f9" stroke-width="3.60905" d="M127.001+123.847L155.209+107.649L127.001+91.4515L127.001+123.847Z" fill="#02224b" stroke-linecap="butt" opacity="1" stroke-linejoin="round"/>
<path stroke="#f9f9f9" stroke-width="3.60905" d="M13.281+85.7914L14.1196+129.819" fill="#02224b" stroke-linecap="butt" opacity="1" stroke-linejoin="round"/>
<path stroke="#f9f9f9" stroke-width="3.60905" d="M156.445+84.938L157.284+128.966" fill="#02224b" stroke-linecap="butt" opacity="1" stroke-linejoin="round"/>
</g>
</g>
</g>
</svg>
